# xmcd
#
# Track frame offsets:
#	150
#	25068
#	50531
#	80382
#	114652
#	140852
#	158205
#	183053
#
# Disc length: 2830 seconds
#
# Revision: 1
# Processed by: cddbd v1.5.2PL0 Copyright (c) Steve Scherf et al.
# Submitted via: audiograbber 1.83.01
#
DISCID=630b0c08
DTITLE=Shaggy Wonda - Real World Shaker
DYEAR=2009
DGENRE=
TTITLE0=Sweet Rose Moonshine
TTITLE1=Whiter Shade Of Grey
TTITLE2=Nothin Boy
TTITLE3=Sirens
TTITLE4=Electric
TTITLE5=Two Hearts
TTITLE6=My Whole Thing
TTITLE7=Real World Shakin'
EXTD=
EXTT0=
EXTT1=
EXTT2=
EXTT3=
EXTT4=
EXTT5=
EXTT6=
EXTT7=
PLAYORDER=
